<?xml version="1.0" encoding="UTF-8"?>
<svg xmlns="http://www.w3.org/2000/svg" viewBox="0 0 32 32">
  <path fill="#21759b" d="M16 2C8.268 2 2 8.268 2 16s6.268 14 14 14 14-6.268 14-14S23.732 2 16 2zM3.733 16c0-1.896.493-3.704 1.433-5.282l7.898 21.632C7.811 30.691 3.733 23.88 3.733 16zm12.272 12.005l-5.271-15.425c.866-.033 1.651-.139 1.651-.139.777-.089.685-1.235-.09-1.192 0 0-2.334.184-3.84.184-1.416 0-3.796-.184-3.796-.184-.777-.043-.867 1.149-.09 1.192 0 0 .736.074 1.514.119l2.251 6.176-3.16 9.477-5.28-15.653c.865-.033 1.65-.139 1.65-.139.777-.089.683-1.235-.09-1.192 0 0-2.332.184-3.84.184-.27 0-.593-.009-.932-.022C7.63 6.706 11.564 3.733 16 3.733c3.304 0 6.307 1.261 8.561 3.327-.054-.002-.107-.007-.162-.007-1.416 0-2.419 1.235-2.419 2.56 0 1.192.685 2.194 1.416 3.387.55.949 1.192 2.168 1.192 3.927 0 1.214-.468 2.623-1.087 4.588l-1.425 4.758-5.169-15.268zm10.799-12.014c1.037 1.885 1.63 4.048 1.63 6.348 0 7.696-6.226 13.946-13.901 14-1.038-1.886-1.628-4.05-1.628-6.349 0-7.696 6.226-13.946 13.899-13.999z" />
</svg>
