<?xml version="1.0" encoding="UTF-8"?>
<svg xmlns="http://www.w3.org/2000/svg" viewBox="0 0 1536.92 869.93">
  <g id="wave_2">
    <path id="vetor" class="wave-2" d="M1536.92,15.42v854.51H0V0h102.66c2.19,0,4.36.07,6.52.2,78.58,4.74,141.23,94.76,141.23,205.11,0,12.68-.83,25.09-2.41,37.14,51.26,25.91,87.84,81.13,92.18,146.26,12.42-3.5,25.5-5.37,39-5.37,80.95,0,146.57,67.21,146.57,150.13v.44c2.88-.29,5.8-.44,8.76-.44,25.89,0,49.1,11.45,64.84,29.56,17.61-7.94,37.08-12.35,57.55-12.35,54.47,0,101.83,31.21,125.97,77.14,38.95-49.29,106.45-81.89,183.19-81.89,13.31,0,26.34.98,38.99,2.86,35.05-81.71,109.91-138.16,196.6-138.16,8.71,0,17.3.57,25.75,1.68,16.82-23.71,37.88-43.52,61.91-58.01-4.17-21.17-6.37-43.23-6.37-65.91,0-123.28,65.09-228.48,156.66-269.74,2.5-1.13,5.01-2.2,7.55-3.23h89.77Z"/>
  </g>
</svg>