<?xml version="1.0" encoding="UTF-8"?>
<svg xmlns="http://www.w3.org/2000/svg" viewBox="0 0 1459.82 729.06">
  <g id="wave_1">
    <path id="vetor" class="wave-1" d="M1459.82,0v729.06H0V43.44c19.84-13.97,43.2-22.03,68.2-22.03,71.95,0,130.28,66.71,130.28,149,0,38.11-12.51,72.87-33.09,99.22,107.71,15.05,190.07,84.65,194.98,169.43,21.62-9.9,45.66-15.41,70.99-15.41,70.75,0,131.46,43.04,157.36,104.36,4.42-.27,8.89-.41,13.39-.41,68.99,0,129.42,32.15,162.85,80.3,29.29-54.55,103.6-93.3,190.65-93.3,42.39,0,81.76,9.19,114.38,24.91,21.04-55.15,62.16-99.55,113.86-123.21,3.12-75.56,54.27-139.14,124.63-162.77-9.02-22.17-14.02-46.65-14.02-72.38,0-98.79,73.71-179.12,165.36-181.15Z"/>
  </g>
</svg>