<?xml version="1.0" encoding="UTF-8"?>
<svg id="Camada_2" data-name="Camada 2" xmlns="http://www.w3.org/2000/svg" viewBox="0 0 1920 1056.16">
  <g id="Camada_2-2" data-name="Camada 2">
    <path id="wave-back" d="M1920,0v1056.16H0V32.21C22.09,19.81,46.46,12.94,72.08,12.94c100.07,0,181.19,104.86,181.19,234.2,0,27.91-3.78,54.68-10.7,79.5,69.14,25.74,121.82,108.78,131.09,211.01,16.07-5.76,33.01-8.84,50.51-8.84,98.15,0,178.77,96.87,187.52,220.53,2.84-.38,5.75-.57,8.7-.57,27.13,0,50.45,16.24,60.78,39.54,39.28-24.86,87.75-39.54,140.19-39.54,80.79,0,152.14,34.84,195.02,88.07,57.07-53.23,152.07-88.07,259.62-88.07,7.97,0,15.88.19,23.7.57,45.06-99.9,149.51-169.89,271.18-169.89,15.38,0,30.49,1.12,45.24,3.28,31.15-76.08,90.08-135.15,162.39-161.21-34.46-45.01-55.17-102.73-55.17-165.67,0-127.31,84.72-233.27,196.66-255.85Z"/>
  </g>
</svg>