<?xml version="1.0" encoding="UTF-8"?>
<svg id="Camada_2" data-name="Camada 2" xmlns="http://www.w3.org/2000/svg" viewBox="0 0 1920 958.97">
  <g id="Camada_2-2" data-name="Camada 2">
    <path id="wave-front" d="M1920,0v958.97H348.93c-1.61-1.26-3.19-2.53-4.76-3.82-1.36,1.29-2.73,2.56-4.11,3.82H0V35.11c10.13-3.25,20.64-4.96,31.4-4.96,83.9,0,151.91,103.79,151.91,231.82,0,45.37-8.54,87.69-23.3,123.43,127.12,15.37,231.81,104.6,270.99,224.09,26.62-8.3,55.39-12.84,85.41-12.84,121.68,0,222.79,74.49,243.12,172.51,1.24-.01,2.49-.02,3.74-.02,106.72,0,198.52,48.01,239.32,116.89,37.82-100.22,134.62-171.49,248.07-171.49,68.57,0,131.06,26.04,178.12,68.77,30.96-89.25,87.95-159.79,158.3-195.11,24.88-110.53,88.92-198.85,170.91-236.99-3.23-19.41-4.92-39.46-4.92-59.96,0-130.76,68.79-243,166.93-291.25Z" fill="blue"/>
  </g>
</svg>