<?xml version="1.0" encoding="UTF-8"?>
<svg id="Camada_2" data-name="Camada 2" xmlns="http://www.w3.org/2000/svg" xmlns:xlink="http://www.w3.org/1999/xlink" viewBox="0 0 375.3 583.78">
  <defs>
    <linearGradient id="Gradiente_sem_nome_37" data-name="Gradiente sem nome 37" x1="217.91" y1="222.88" x2="264.51" y2="222.88" gradientTransform="translate(537.99 -18.71) rotate(90)" gradientUnits="userSpaceOnUse">
      <stop offset="0" stop-color="#fc6657" stop-opacity=".3"/>
      <stop offset="1" stop-color="#fea595"/>
    </linearGradient>
    <clipPath id="clip-eyeL"><use href="#Esclera_L"/></clipPath>
    <clipPath id="clip-eyeR"><use href="#Esclera_R"/></clipPath>
  </defs>
  <g id="Lucas">
    <path id="neck" d="M143.44,328.13s1.32,3.83,3,16.96c.3,2.32.18,6.45.18,6.45.25,5.13-2,10.05-5.69,13.62-5.98,5.79-14.33,14.24-13.57,15.52,0,0-1.53,6.68,24.53,31.65,6.73,1.98,43.31,12.03,73.27-9.1,20.93-14.76,39.85-45.58,30.27-61.62-2.91-4.87-12.21-8.54-12.96-9.2-3.1-2.73-3.36-21.73-3.36-32.93,0-25.3-94.96,8.53-95.68,28.65Z" fill="#ffb19c"/>
    <path id="nech_shadow" data-name="nech shadow" d="M239.3,310.61c-16.63,14.67-65.2,53.95-92.3,40.02-.13-.08-.25-.15-.37-.23v-.19s.11-4.12-.18-6.44c-1.69-13.13-3-16.96-3-16.96.26-7.3,12.92-16.4,28.95-23.83l54.75-13.72c7.3.58,11.98,3.28,11.98,8.9,0,3.61.02,8.03.17,12.45Z" fill="#ff8573"/>
    <path id="ear_L" data-name="ear L" d="M35.52,187.52c-1.41-.61-4.02.58-6.85,2.95-4.78,3.98-8.16,10-9.75,16.05-3.61,12.42-.96,26.95,6.7,37.57,3.49,4.63,7.55,9.32,12.73,11.63,2.89,1.27,2.02-5.4,1.88-9.27-.41-7.98-.8-15.46-1.25-23.94-.45-8.59-.84-16.18-1.22-23.5-.39-6.58-.27-10.58-2.17-11.47l-.07-.03Z" fill="#ff8573"/>
    <path id="face" d="M275.85,255.77c-14.51,31.12-28.15,46.35-75.53,64.02-13.78,5.14-72.06,24.72-121.75-3.63-28.55-16.29-41.75-46.11-45.63-71.47-2.93-19.14-5.82-70.96,3.43-137.14,4.75-33.96,33.37-73.84,97.85-91.52C192.76-.01,261.3,23.99,291.41,73.53c23.84,39.22,16.9,83.45,13.19,107.08-6.58,41.9-25.93,69.12-28.75,75.16Z" fill="#ffb19c"/>
    <ellipse id="Esclera_R" data-name="Esclera R" cx="188.19" cy="198.21" rx="28.78" ry="30.46" fill="#fff"/>
    <g id="EYE_R" clip-path="url(#clip-eyeR)">
      <ellipse id="Preto_T" data-name="Preto T" cx="194.22" cy="197.75" rx="19.45" ry="22.15"/>
      <circle id="brilho_R" data-name="brilho R" cx="200.59" cy="187.56" r="4.45" fill="#fff"/>
    </g>
    <ellipse id="Esclera_L" data-name="Esclera L" cx="70.2" cy="197.61" rx="26.31" ry="29.87" fill="#fff"/>
   <g id="eye_L" clip-path="url(#clip-eyeL)">
      <ellipse id="Preto_L" data-name="Preto L" cx="77.06" cy="197.22" rx="18.2" ry="21.63"/>
      <circle id="brilho_L" data-name="brilho L" cx="81.71" cy="187.36" r="4.12" fill="#fff"/>
    </g>
    <path id="hair" d="M96.71,98.65c1.29-.89,2.92-16.17,2.92-16.17-1.38,6.73-10.48,17.11-10.48,17.11-10.38,1.48-22.76,2.67-33.49,2.14.66-5.97,1.32-8.21,4.05-14.31-5.69,8.43-6.16,14.93-22.57,18.58l-5.5,58.14s-13.71-36.4-4.22-78.2c9.49-41.8,49.63-64.13,49.63-64.13,0,0,89.18-52.15,183.89,4.81,94.71,56.97,51.51,176.4,51.51,176.4,0,0-5.08,11.29-26.26,3.5-22.65-8.32,8.9-28.48-23.14-71.8-19.2-25.95-7.8-49.74-7.8-49.74-11.84,20.47-47.28,13.02-47.28,13.02,0,0,2.16-7.56,2.42-13.2-2.13,6.49-8.9,13.15-8.9,13.15l-48.46.05s3.21-13.19,2.91-12.12c-2.05,7.36-9.14,12.26-9.14,12.26,0,0-51.93,1.76-50.09.49Z"/>
    <path id="ear_R" data-name="ear R" d="M280.13,201.73s7.7-17.83,30.13-22.58c21.01-4.44,41.32,11.97,32.46,47.3-9.42,37.53-61.25,55.37-67.61,29.78-7.33-29.45,5.02-54.5,5.02-54.5Z" fill="#ffb19c"/>
    <path id="orelha_fundo" data-name="orelha fundo" d="M297.16,245.7c-10.23.67,33.69-15.72,1.49-25.25-8.43-2.5,14.03-20.14,24.24-21.18s15.28,9.54,9.18,23.74c-11.64,27.11-28.99,22.3-34.91,22.69Z" fill="url(#Gradiente_sem_nome_37)"/>
    <path id="orelha_lineart" data-name="orelha lineart" d="M295.64,221.74c-.37-.26-.52-.77-.35-1.21,10.81-27.72,41.19-21.3,30.83-18.89-18.78,4.36-22.2,11.65-22.82,14.09-.12.45.09.92.48,1.13,1.83.99,7.12,4.51,6.92,12.35-.21,8.27-4.41,16.84-13.36,16.71-1.79-.03-2.71-2.36-1.49-3.78l1.68-1.46c6.17-3.89,7.58-13.06,1.09-17.24l-2.97-1.69Z" fill="#ff6758"/>
    <path id="nariz_sombra_baixo" data-name="nariz sombra baixo" d="M95.3,239.37s21.54.71,32.81,6.25c.92.45,1.07,1.7.31,2.38-2.55,2.27-8.47,6.2-17.11,4.03-11.8-2.97-16.01-12.66-16.01-12.66Z" fill="#ff8573"/>
    <path id="nariz_sombra_cima" data-name="nariz sombra cima" d="M138.42,203.56c-.1.38-7.91-14.53-17.01-14.53-3.35,0-6.25,1.31-8.58,2.98,0,0-1.96,9.42-2,9.72-1.19,8.99-9.66,22.6-10.12,22.94-.45.34-2.91-1.72-2.91-1.72l8.94-31.94h0s.72-12.57.72-12.57h28.29s2.77,24.74,2.67,25.12Z" fill="#ff8573"/>
    <path id="palbebra_R" data-name="palbebra R" d="M159.7,205.8c1.91-9.62,44.87-34.44,56.01-29.63l-6.47-15.76-55.68,10.37,6.13,35.02Z" fill="#ffb19c"/>
    <path id="palpebra_L" data-name="palpebra L" d="M99.12,201.94c-1.88-9.96-44.23-35.66-55.22-30.68l6.37-16.32,54.89,10.73-6.04,36.26Z" fill="#ffb19c"/>       
    <path id="eyebrow_R" data-name="eyebrow R" d="M41.46,150.4c-1.15-.33-1.26-1.59-.88-2.55.94-3.19,6.34-8.96,11.08-11.2,10.59-5.47,26.08-8.37,37.52-5.29,9.28,2.47,13.14,10.83,11.22,16.23-1.24,2.26-4.24,2.4-6.54,1.8-5.05-1.11-13.32-2.77-20.1-3.24-7.6-.64-15.59.52-23.02,2.31-3.17.52-6.43,2.26-9.18,1.95l-.1-.03Z" fill="#111"/>                                                                          
    <path id="eyebrown_L" data-name="eyebrown L" d="M153.32,148.71c-6.46-1.83-3.91-11.36-.16-15.15,8.23-11.05,63.81-3.45,70.68,14.83,1.52,4.03-5.09,3.77-8.45,3.17-9.19-1.52-20.85-3.75-28.32-4.73-4.68-.65-9.46-.65-14.24-.32-5.09.34-9.71,1.1-13.53,1.82-2.06.39-4.12.76-5.86.41l-.14-.03Z" fill="#111"/>
    <g id="nose">
      <path d="M106.98,251.06c-7.94-3.54-18.52-13.24-12.02-22.44,3.61-4.69,8.24-8.31,10.6-13.82,3.64-7.92,5.61-16.6,7.58-25.11.09-.44.53-.73.97-.63.4.09.67.47.63.87-.59,5.96-1.64,11.84-3.19,17.66-1.55,5.86-3.92,11.84-7.99,16.47-1.96,2.37-4.29,4.38-5.8,6.51-3.54,4.62,0,10.18,3.27,13.9,1.87,2.18,4,4.21,6.22,6.18.23.16,0,.56-.26.43h0Z" fill="#ff584b"/>                                                 
    </g>
    <path id="glasses" d="M250.83,166.61c-2.24-2.14,3.82-.79-12.53-5.14-16.35-4.36-46.42-6.1-59.95-5.87-13.81.23-23.88-.89-37.76,7.71-2.85,1.77-6.89,7.77-6.89,7.77h-26.11s.36-14.71-47.11-15.5c-47.48-.79-58.32,9.18-58.32,9.18,0,0-5.34,12.66.79,13.26,6.13.59,6.73,5.22,6.73,5.22,0,0,.89,42.13,20.76,52.14,12.23,6.15,21.12,8.14,52.06,2.73,0,0,13.25-2.4,19.85-21.26,6.59-18.86,7.97-31.61,7.97-31.61,1.24-.6,2.44-2.54,10.22-2.54,5.91,0,8.67.85,9.65,1.61,0,0,6.84,36.5,17.65,45.33,10.81,8.84,23.47,12.26,46.39,12.13,27.93-.14,38.93-8.95,43.81-27.69,4.88-18.74,5.07-24.48,6-30.41,0,0,.59-4.01,6.92-3.61,6.33.4,34.42,5.01,34.42,5.01l.79-11.87s-35.29-6.54-35.34-6.59ZM100.9,198.87c-2.1,18.59-9.13,28.08-13.98,30.99-6.67,4-17.16,5.98-32.93,5.15-10.58-.56-18.37-.67-28.65-12.27-10.29-11.61-8.75-44.6-5.9-50.48,2.37-4.89,4.71-10.58,37.42-9.66,32.7.93,36.52,4.68,40.21,9.23,3.7,4.55,5.71,10.37,3.83,27.04ZM223.07,227.22c-12.46,10.75-26.95,8.56-39.29,8.45-24.37-.21-35.83-10.39-40.02-30.28-1.79-8.48-7.09-21.99-.2-30.46,14.27-17.54,48-12.46,62.41-11.5,14.4.95,17.88,2.73,22.25,5.7,3.03,2.06,5.94,8.43,6.2,15.63.24,6.85-.36,32.99-11.35,42.46Z"/>                                                                      
    <g id="boca">
      <path d="M101.53,276.13c.67-.55,1.16-.69,1.89-.96,3.56-1.12,7.32-1.31,10.99-1.48,12.37-.46,24.71,1.32,36.72,4.25,1.1.29.72,1.98-.43,1.71-11.83-2.62-24.04-4.12-36.16-3.41-3.62.25-8.04.56-11.04,1.92-1.35,1.26-3.27-.72-1.95-2.03h0Z" fill="#ff584b"/>
    </g>
    <path id="body" d="M310.25,579.66c-.15,1.88-.21,3.05-.28,3.52-.08.51-.46.39-.9.42-8.72.5-192.1-.22-241.06-.13h-.01c3.45-38.02,11.8-185.21,25.07-198.65,11.59-7.58,34.32-21.69,53.56-34.42-1.73,14.44-2.44,51.54,40.62,38.74,36.61-10.89,52.53-46.09,55.3-55.91.32.12.63.24.94.36,3.65,1.66,10.78,5.8,12.99,8.52,0,0,24.85,13.45,41.23,24.14,4.15,2.71,7.84,5.36,10.13,7.28,2,1.74,22.15,19.17,23.04,21.09,10.29,26.81-17.15,134.23-20.63,185.04Z" fill="#00b1b3"/>
    <path id="gola" d="M135.43,357.72s-18.56,60.23,55.41,46.57c28.38-5.24,60.59-45.37,65.64-62.18" fill="none" stroke="#00969c" stroke-miterlimit="10" stroke-width="4"/>
    <g id="left_hand" data-name="left hand">
      <path id="pele_mao_l" data-name="pele mao l" d="M52.4,502.51c-.13.66-5.7,29.02-6.99,37.71s-4.48,42.73-4.48,42.73c0,0,32.7,1.19,32.7,0v-78.86l-21.23-1.58Z" fill="#ffb19c"/>
      <path id="blusa_mao_l" data-name="blusa mao l" d="M83.57,530.26s-38.18-.79-48.46-12.66c0,0,6.46-29.8,12.92-49.45,6.46-19.65,13.98-67.65,52.35-88.22,38.37-20.57-16.81,150.33-16.81,150.33Z" fill="#00b1b3"/>
      <path id="sopmbra_blusa_l" data-name="sopmbra blusa l" d="M61.83,528.16c-1.04-4.22,24.34-108.56,24.34-107.37s-15.6,94.71-12.57,108.97l-11.78-1.6Z" fill="#0097a2"/>
    </g>
    <path id="sombra_R" data-name="sombra R" d="M251.53,583.48s-.12-103.56,13.89-146.56c16.57-50.88,47.08-46.92,47.08-46.92l-1.83,193.41" fill="#0097a2"/>
    <g id="right_hand" data-name="right hand">
      <path id="mao_riht_hand" data-name="mao riht hand" d="M279.71,540.07c0,10.28,3.65,43.41,3.65,43.41h83.21l-5.49-73.88h-81.36v30.46Z" fill="#ffb19c"/>
      <path id="Blusa_right_hand" data-name="Blusa right hand" d="M265.59,538.36s4.22,5.8,55.38-1.32c51.16-7.12,54.33-12.4,54.33-12.4,0,0-3.96-88.35-39.56-125.8-20.4-21.45-58.52-7.48-70.16,41.22-7.84,32.83-.11,86.87,0,98.3Z" fill="#00b1b3"/>
    </g>
    <rect id="face-hit-area"  x="2.16" y="0" width="342.7" height="333.23" fill="rgba(255,255,255,0.001)" />

  </g>
</svg>