<?xml version="1.0" encoding="UTF-8"?>
<svg id="Camada_2" data-name="Camada 2" xmlns="http://www.w3.org/2000/svg" viewBox="0 0 113.94 126.2">
  <g id="bolas">
    <path class="bubble" d="M113.94,69.73c0,26.27-21.3,47.57-47.57,47.57-6.71,0-13.1-1.39-18.89-3.9-4.38,7.65-12.62,12.8-22.06,12.8-14.04,0-25.42-11.38-25.42-25.42,0-11.9,8.18-21.89,19.22-24.65-.28-2.09-.43-4.23-.43-6.4,0-12.81,5.07-24.44,13.3-32.99-2.17-3.63-3.41-7.88-3.41-12.41C28.68,10.89,39.58,0,53.01,0s23.84,10.41,24.31,23.43c20.99,4.94,36.62,23.79,36.62,46.3Z"/>
  </g>
</svg>